<svg width="22" height="22" viewBox="0 0 22 22" fill="none" xmlns="http://www.w3.org/2000/svg">
<path d="M11.001 0.0625C8.03058 0.0625 7.65772 0.0755156 6.49113 0.128563C5.32672 0.181938 4.53189 0.366234 3.83648 0.636719C3.11702 0.916062 2.50681 1.2898 1.89891 1.89792C1.29045 2.50594 0.916719 3.11614 0.6365 3.83528C0.36525 4.53091 0.180734 5.32606 0.128344 6.48992C0.0761718 7.65662 0.0625 8.02959 0.0625 11.0001C0.0625 13.9706 0.075625 14.3423 0.128563 15.5089C0.182156 16.6733 0.366453 17.4681 0.636719 18.1635C0.916281 18.883 1.29002 19.4932 1.89814 20.1011C2.50594 20.7095 3.11614 21.0842 3.83506 21.3635C4.53102 21.634 5.32595 21.8183 6.49014 21.8717C7.65684 21.9247 8.02938 21.9377 10.9997 21.9377C13.9704 21.9377 14.3421 21.9247 15.5087 21.8717C16.6731 21.8183 17.4688 21.634 18.1647 21.3635C18.8839 21.0842 19.4932 20.7095 20.1009 20.1011C20.7093 19.4932 21.083 18.883 21.3633 18.1638C21.6321 17.4681 21.8167 16.6731 21.8714 15.5091C21.9238 14.3425 21.9375 13.9706 21.9375 11.0001C21.9375 8.02959 21.9238 7.65684 21.8714 6.49014C21.8167 5.32573 21.6321 4.53102 21.3633 3.83561C21.083 3.11614 20.7093 2.50594 20.1009 1.89792C19.4925 1.28958 18.8841 0.915844 18.1641 0.636828C17.4668 0.366234 16.6715 0.181828 15.5071 0.128563C14.3404 0.0755156 13.969 0.0625 10.9976 0.0625H11.001ZM10.0198 2.03355C10.311 2.03311 10.636 2.03355 11.001 2.03355C13.9214 2.03355 14.2675 2.04405 15.4207 2.09644C16.4871 2.14522 17.0659 2.32339 17.4515 2.47312C17.9619 2.67131 18.3258 2.90833 18.7084 3.29125C19.0912 3.67406 19.3281 4.03861 19.5269 4.54906C19.6766 4.93406 19.855 5.51287 19.9036 6.57928C19.956 7.73231 19.9673 8.07859 19.9673 10.9976C19.9673 13.9166 19.956 14.263 19.9036 15.4159C19.8548 16.4823 19.6766 17.0611 19.5269 17.4462C19.3287 17.9567 19.0912 18.3201 18.7084 18.7027C18.3256 19.0855 17.9622 19.3225 17.4515 19.5208C17.0664 19.6711 16.4871 19.8489 15.4207 19.8977C14.2677 19.95 13.9214 19.9614 11.001 19.9614C8.08045 19.9614 7.73428 19.95 6.58136 19.8977C5.51495 19.8484 4.93614 19.6703 4.55027 19.5205C4.03992 19.3222 3.67527 19.0853 3.29245 18.7025C2.90964 18.3197 2.67273 17.956 2.474 17.4454C2.32427 17.0602 2.14587 16.4814 2.09731 15.415C2.04492 14.262 2.03442 13.9157 2.03442 10.9949C2.03442 8.07411 2.04492 7.72958 2.09731 6.57655C2.14609 5.51014 2.32427 4.93133 2.474 4.54578C2.6723 4.03533 2.90964 3.67078 3.29256 3.28797C3.67538 2.90516 4.03992 2.66814 4.55037 2.46952C4.93592 2.31912 5.51495 2.14139 6.58136 2.09239C7.59034 2.04678 7.98136 2.03311 10.0198 2.03081V2.03355ZM16.8394 3.84961C16.1148 3.84961 15.5269 4.43695 15.5269 5.16167C15.5269 5.88628 16.1148 6.47417 16.8394 6.47417C17.564 6.47417 18.1519 5.88628 18.1519 5.16167C18.1519 4.43706 17.564 3.84917 16.8394 3.84917V3.84961ZM11.001 5.38316C7.89911 5.38316 5.38414 7.89813 5.38414 11.0001C5.38414 14.1021 7.89911 16.6159 11.001 16.6159C14.103 16.6159 16.6171 14.1021 16.6171 11.0001C16.6171 7.89823 14.1028 5.38316 11.0008 5.38316H11.001ZM11.001 7.3542C13.0145 7.3542 14.6469 8.98641 14.6469 11.0001C14.6469 13.0136 13.0145 14.646 11.001 14.646C8.98739 14.646 7.35519 13.0136 7.35519 11.0001C7.35519 8.98641 8.98739 7.3542 11.001 7.3542Z" fill="white"/>
</svg>
