<svg width="26" height="27" viewBox="0 0 26 27" fill="none" xmlns="http://www.w3.org/2000/svg">
<path d="M5.22889 11.7522C7.30889 15.84 10.66 19.1767 14.7478 21.2711L17.9256 18.0933C18.3156 17.7033 18.8933 17.5733 19.3989 17.7467C21.0167 18.2811 22.7644 18.57 24.5556 18.57C25.35 18.57 26 19.22 26 20.0144V25.0556C26 25.85 25.35 26.5 24.5556 26.5C10.9922 26.5 0 15.5078 0 1.94444C0 1.15 0.65 0.5 1.44444 0.5H6.5C7.29444 0.5 7.94444 1.15 7.94444 1.94444C7.94444 3.75 8.23333 5.48333 8.76778 7.10111C8.92667 7.60667 8.81111 8.17 8.40667 8.57444L5.22889 11.7522Z" fill="white"/>
</svg>
